<svg viewBox="0 0 153 52" fill="none" xmlns="http://www.w3.org/2000/svg">
<path d="M23.6899 12.6052L4.02189 21.1885L23.6899 29.7718V33.4013L0 22.709V19.668L23.6899 8.97567V12.6052Z" fill="black"/>
<path d="M35.2088 4.80665V16.2837H48.2063V19.7171H35.2088V34.7256H30.6964V1.37333H50.1682V4.80665H35.2088Z" fill="black"/>
<path d="M83.0867 1.37333L70.1872 35.1179H65.822L52.8735 1.37333H57.4839L68.0291 30.0661L78.5743 1.37333H83.0867Z" fill="black"/>
<path d="M98.5316 35.5103C96.0793 35.5103 93.9375 35.2487 92.1064 34.7256C90.2753 34.2024 88.5914 33.4176 87.0546 32.3713L88.6241 29.0361C91.3707 30.998 94.6732 31.9789 98.5316 31.9789C100.755 31.9789 102.603 31.4394 104.074 30.3603C105.545 29.2813 106.281 27.8099 106.281 25.9461C106.281 24.8016 105.938 23.837 105.251 23.0523C104.564 22.2675 103.698 21.6463 102.652 21.1885C101.638 20.698 100.216 20.1258 98.3845 19.4718C96.1937 18.6871 94.428 17.9677 93.0874 17.3137C91.7795 16.6598 90.6514 15.7442 89.7031 14.5671C88.7876 13.3572 88.3298 11.8204 88.3298 9.95662C88.3298 7.01378 89.3761 4.74125 91.4688 3.13903C93.5615 1.53682 96.2428 0.73571 99.5126 0.73571C103.436 0.73571 106.853 1.76571 109.764 3.8257L108.194 7.06283C105.578 5.16633 102.717 4.21808 99.6107 4.21808C97.6161 4.21808 95.9812 4.6922 94.706 5.64045C93.4307 6.5887 92.7931 7.96203 92.7931 9.76044C92.7931 10.8722 93.1364 11.8041 93.8231 12.5561C94.5098 13.3082 95.3599 13.9295 96.3736 14.4199C97.3872 14.8777 98.7932 15.4336 100.592 16.0875C102.782 16.8723 104.548 17.608 105.889 18.2947C107.229 18.9486 108.374 19.8969 109.322 21.1394C110.27 22.3493 110.744 23.8861 110.744 25.7499C110.744 27.7445 110.238 29.4775 109.224 30.9489C108.21 32.4203 106.772 33.5484 104.908 34.3332C103.077 35.1179 100.951 35.5103 98.5316 35.5103Z" fill="black"/>
<path d="M125.755 0H130.267L115.5 48.5H111.5L125.755 0Z" fill="black"/>
<path d="M152.471 19.668V22.758L128.781 33.4013V29.7718L148.449 21.1885L128.781 12.6052V8.97567L152.471 19.668Z" fill="black"/>
<path d="M32.2255 41.807V44.1415H35.02V45.2685H32.2255V48.5H30.6615V40.68H35.48V41.807H32.2255Z" fill="black"/>
<path d="M42.1956 42.1635V48.5H41.0571L40.8731 47.9135C40.1371 48.4195 39.4165 48.6725 38.7111 48.6725C37.9445 48.6725 37.4155 48.4732 37.1241 48.0745C36.8328 47.6682 36.6871 47.0855 36.6871 46.3265V42.1635H38.2051V46.154C38.2051 46.66 38.2741 47.0165 38.4121 47.2235C38.5501 47.4305 38.8031 47.534 39.1711 47.534C39.6465 47.534 40.1486 47.3347 40.6776 46.936V42.1635H42.1956Z" fill="black"/>
<path d="M44.1904 39.3H45.7084V48.5H44.1904V39.3Z" fill="black"/>
<path d="M47.7056 39.3H49.2236V48.5H47.7056V39.3Z" fill="black"/>
<path d="M58.0402 40.68L55.0272 48.569H53.4517L50.4387 40.68H52.0372L54.2567 47.0395L56.4647 40.68H58.0402Z" fill="black"/>
<path d="M60.0325 40.772C59.7872 40.772 59.5763 40.6839 59.4 40.5075C59.2237 40.3312 59.1355 40.1204 59.1355 39.875C59.1355 39.6297 59.2237 39.4189 59.4 39.2425C59.5763 39.0662 59.7872 38.978 60.0325 38.978C60.2855 38.978 60.5002 39.0662 60.6765 39.2425C60.8528 39.4189 60.941 39.6297 60.941 39.875C60.941 40.1204 60.8528 40.3312 60.6765 40.5075C60.5002 40.6839 60.2855 40.772 60.0325 40.772ZM59.285 42.1635H60.803V48.5H59.285V42.1635Z" fill="black"/>
<path d="M65.5355 47.557C65.9035 47.557 66.2409 47.4842 66.5475 47.3385C66.8619 47.1929 67.1839 46.982 67.5135 46.706L67.9735 47.6605C67.6055 47.9979 67.226 48.2509 66.835 48.4195C66.4517 48.5882 66.0147 48.6725 65.524 48.6725C64.8187 48.6725 64.2284 48.5269 63.753 48.2355C63.2777 47.9365 62.9212 47.5379 62.6835 47.0395C62.4535 46.5335 62.3385 45.9662 62.3385 45.3375C62.3385 44.6935 62.4574 44.1224 62.695 43.624C62.9327 43.118 63.2892 42.7194 63.7645 42.428C64.2399 42.1367 64.8264 41.991 65.524 41.991C66.3137 41.991 66.9309 42.2134 67.3755 42.658C67.8279 43.095 68.0579 43.7122 68.0655 44.5095C68.0655 44.7625 68.0234 45.0462 67.939 45.3605H63.8335C63.8412 46.0659 63.983 46.6102 64.259 46.9935C64.535 47.3692 64.9605 47.557 65.5355 47.557ZM65.455 43.026C65.0487 43.026 64.719 43.1449 64.466 43.3825C64.213 43.6125 64.0367 43.9307 63.937 44.337H66.582V44.199C66.582 43.8234 66.4747 43.5359 66.26 43.3365C66.053 43.1295 65.7847 43.026 65.455 43.026Z" fill="black"/>
<path d="M78.2193 42.1635L76.2183 48.569H74.7693L73.4813 43.785L72.1818 48.569H70.7328L68.7318 42.1635H70.2843L71.4458 46.936L72.7683 42.1635H74.1943L75.5053 46.9475L76.6898 42.1635H78.2193Z" fill="black"/>
<path d="M81.5953 48.661C80.5066 48.661 79.6058 48.4464 78.8928 48.017L79.2723 46.9245C79.6556 47.1239 80.0313 47.2734 80.3993 47.373C80.7673 47.465 81.1583 47.511 81.5723 47.511C82.0399 47.511 82.4309 47.4152 82.7453 47.2235C83.0596 47.0319 83.2168 46.7559 83.2168 46.3955C83.2168 46.1732 83.1401 45.9854 82.9868 45.832C82.8411 45.671 82.6571 45.5407 82.4348 45.441C82.2124 45.3337 81.9058 45.211 81.5148 45.073C81.0088 44.889 80.5986 44.7204 80.2843 44.567C79.9776 44.406 79.7131 44.1875 79.4908 43.9115C79.2684 43.6279 79.1573 43.2714 79.1573 42.842C79.1573 42.1137 79.4256 41.5502 79.9623 41.1515C80.5066 40.7452 81.2234 40.542 82.1128 40.542C83.0021 40.542 83.7841 40.749 84.4588 41.163L84.0793 42.244C83.4429 41.876 82.8028 41.692 82.1588 41.692C81.7294 41.692 81.3768 41.784 81.1008 41.968C80.8248 42.152 80.6868 42.4127 80.6868 42.75C80.6868 42.9494 80.7558 43.1219 80.8938 43.2675C81.0394 43.4132 81.2158 43.5359 81.4228 43.6355C81.6374 43.7275 81.9364 43.8464 82.3198 43.992C82.8411 44.1837 83.2628 44.3639 83.5848 44.5325C83.9068 44.6935 84.1828 44.9197 84.4128 45.211C84.6428 45.4947 84.7578 45.8589 84.7578 46.3035C84.7578 47.0395 84.4779 47.6184 83.9183 48.04C83.3586 48.454 82.5843 48.661 81.5953 48.661Z" fill="black"/>
<path d="M89.7667 41.991C90.5334 41.991 91.0586 42.1942 91.3422 42.6005C91.6336 42.9992 91.7792 43.578 91.7792 44.337V48.5H90.2727V44.5095C90.2727 44.0035 90.1999 43.647 90.0542 43.44C89.9162 43.233 89.6671 43.1295 89.3067 43.1295C88.8237 43.1295 88.3216 43.325 87.8002 43.716V48.5H86.2822V42.1635H87.4207L87.6047 42.75C88.3407 42.244 89.0614 41.991 89.7667 41.991Z" fill="black"/>
<path d="M99.34 48.454C99.0027 48.5537 98.6539 48.6074 98.2935 48.615C97.9562 48.615 97.6725 48.5575 97.4425 48.4425C97.2202 48.3275 97.063 48.132 96.971 47.856C96.6337 48.109 96.304 48.3007 95.982 48.431C95.66 48.5614 95.3189 48.6265 94.9585 48.6265C94.4525 48.6265 94.0385 48.4809 93.7165 48.1895C93.3945 47.8905 93.2335 47.5225 93.2335 47.0855C93.2335 46.6485 93.3485 46.292 93.5785 46.016C93.8085 45.74 94.1267 45.5177 94.533 45.349C94.947 45.1804 95.5297 44.9887 96.281 44.774L96.879 44.6015V44.3485C96.879 43.9575 96.7947 43.6585 96.626 43.4515C96.465 43.2369 96.2159 43.1295 95.8785 43.1295C95.5259 43.1295 95.177 43.2024 94.832 43.348C94.4947 43.4937 94.1075 43.7505 93.6705 44.1185L93.268 43.118C94.2264 42.3667 95.2384 41.991 96.304 41.991C97.0017 41.991 97.523 42.1789 97.868 42.5545C98.2207 42.9225 98.397 43.5474 98.397 44.429V47.028C98.397 47.1967 98.4277 47.3194 98.489 47.396C98.5504 47.465 98.6539 47.4995 98.7995 47.4995C98.9452 47.4995 99.0985 47.4689 99.2595 47.4075L99.34 48.454ZM94.7515 46.913C94.7515 47.3117 94.9739 47.511 95.4185 47.511C95.6409 47.511 95.867 47.4612 96.097 47.3615C96.327 47.2619 96.5877 47.1124 96.879 46.913V45.487L96.465 45.625C95.8134 45.8397 95.3649 46.039 95.1195 46.223C94.8742 46.407 94.7515 46.637 94.7515 46.913Z" fill="black"/>
<path d="M103.617 41.991C104.169 41.991 104.656 42.1214 105.078 42.382C105.507 42.635 105.841 43.0107 106.078 43.509C106.316 44.0074 106.435 44.6015 106.435 45.2915C106.435 46.4339 106.117 47.2849 105.48 47.8445C104.852 48.3965 104.02 48.6725 102.985 48.6725C102.609 48.6725 102.276 48.6304 101.984 48.546V51.191H100.466V42.152H101.605L101.766 42.6465C102.302 42.2095 102.92 41.991 103.617 41.991ZM102.904 47.557C103.579 47.557 104.077 47.3615 104.399 46.9705C104.729 46.5719 104.894 46.0007 104.894 45.257C104.894 44.4904 104.76 43.9422 104.491 43.6125C104.223 43.2829 103.882 43.118 103.468 43.118C103.176 43.118 102.916 43.1564 102.686 43.233C102.456 43.302 102.222 43.417 101.984 43.578V47.419C102.276 47.511 102.582 47.557 102.904 47.557Z" fill="black"/>
</svg>
