<svg viewBox="0 0 75 26" fill="none" xmlns="http://www.w3.org/2000/svg" role="img" aria-labelledby="logo-title logo-desc">
    <title id="logo-title">Websultancy Logo</title>
    <desc id="logo-desc">
    Company logo for Websultancy abbreviated as WS wrapped in HTML opening and closing tags.
    </desc>
    <path d="M12.8899 6.80708L2.18834 11.4423L12.8899 16.0774V18.0374L0 12.2633V10.6212L12.8899 4.84706V6.80708Z" fill="black"/>
    <path d="M39.0126 0.741627L33.1148 18.9645H30.7663L25.9359 4.07895L21.1056 18.9645H18.7571L13.1528 0.741627H15.6614L19.9847 16.0245L24.8684 0.741627H27.0301L31.9672 16.0774L36.504 0.741627H39.0126Z" fill="black"/>
    <path d="M46.0958 19.1764C44.7614 19.1764 43.5961 19.0351 42.5997 18.7526C41.6034 18.4701 40.6872 18.0463 39.851 17.4812L40.705 15.6801C42.1994 16.7396 43.9964 17.2693 46.0958 17.2693C47.3056 17.2693 48.3108 16.978 49.1114 16.3953C49.912 15.8126 50.3123 15.018 50.3123 14.0115C50.3123 13.3934 50.1255 12.8725 49.7519 12.4487C49.3783 12.025 48.9068 11.6895 48.3375 11.4423C47.7859 11.1774 47.012 10.8684 46.0157 10.5152C44.8237 10.0914 43.8629 9.70296 43.1335 9.3498C42.4218 8.99665 41.808 8.50223 41.2921 7.86655C40.7939 7.21321 40.5448 6.38329 40.5448 5.3768C40.5448 3.7876 41.1142 2.56038 42.2528 1.69515C43.3915 0.829916 44.8504 0.3973 46.6295 0.3973C48.7645 0.3973 50.6237 0.95352 52.2071 2.06596L51.3531 3.81408C49.9298 2.78993 48.3731 2.27785 46.6829 2.27785C45.5976 2.27785 44.708 2.53389 44.0142 3.04597C43.3203 3.55805 42.9734 4.29967 42.9734 5.27085C42.9734 5.87122 43.1602 6.37446 43.5338 6.78059C43.9074 7.18672 44.37 7.52222 44.9215 7.78709C45.4731 8.0343 46.2381 8.33448 47.2166 8.68763C48.4086 9.11142 49.3694 9.50872 50.0988 9.87954C50.8283 10.2327 51.451 10.7448 51.9669 11.4158C52.4829 12.0691 52.7408 12.899 52.7408 13.9055C52.7408 14.9826 52.4651 15.9185 51.9136 16.7131C51.362 17.5077 50.5792 18.1169 49.5651 18.5407C48.5688 18.9645 47.4123 19.1764 46.0958 19.1764Z" fill="black"/>
    <path d="M60.3152 0H62.7704L55.0845 25.0034H52.656L60.3152 0Z" fill="black"/>
    <path d="M75 10.6212V12.2898L62.1101 18.0374V16.0774L72.8117 11.4423L62.1101 6.80708V4.84706L75 10.6212Z" fill="black"/>
    <path d="M23.7499 22.0171L22.8792 24.7833H22.2487L21.6883 22.7173L21.1229 24.7833H20.4924L19.6217 22.0171H20.2972L20.8026 24.0781L21.3781 22.0171H21.9985L22.569 24.083L23.0844 22.0171H23.7499Z" fill="black"/>
    <path d="M25.424 24.3462C25.5841 24.3462 25.7309 24.3148 25.8643 24.2519C26.0011 24.189 26.1412 24.0979 26.2846 23.9787L26.4848 24.3909C26.3247 24.5366 26.1595 24.6459 25.9894 24.7187C25.8226 24.7915 25.6325 24.828 25.419 24.828C25.1121 24.828 24.8552 24.7651 24.6484 24.6392C24.4415 24.5101 24.2864 24.338 24.183 24.1228C24.0829 23.9042 24.0329 23.6592 24.0329 23.3878C24.0329 23.1096 24.0846 22.863 24.188 22.6478C24.2914 22.4293 24.4466 22.2571 24.6534 22.1313C24.8602 22.0055 25.1154 21.9426 25.419 21.9426C25.7626 21.9426 26.0311 22.0386 26.2246 22.2306C26.4214 22.4193 26.5215 22.6859 26.5248 23.0302C26.5248 23.1394 26.5065 23.2619 26.4698 23.3977H24.6834C24.6867 23.7023 24.7485 23.9373 24.8685 24.1029C24.9886 24.2651 25.1738 24.3462 25.424 24.3462ZM25.3889 22.3895C25.2121 22.3895 25.0687 22.4408 24.9586 22.5435C24.8485 22.6428 24.7718 22.7802 24.7284 22.9557H25.8793V22.8961C25.8793 22.7339 25.8326 22.6097 25.7392 22.5236C25.6491 22.4342 25.5324 22.3895 25.3889 22.3895Z" fill="black"/>
    <path d="M28.5511 21.9426C28.7912 21.9426 29.0031 21.9972 29.1865 22.1065C29.3734 22.2124 29.5185 22.3713 29.6219 22.5832C29.7253 22.7951 29.777 23.0517 29.777 23.353C29.777 23.6808 29.7169 23.9556 29.5969 24.1774C29.4768 24.3959 29.315 24.5581 29.1115 24.6641C28.9113 24.77 28.6862 24.823 28.436 24.823C28.1758 24.823 27.9356 24.7452 27.7154 24.5896L27.6404 24.7535H27.18V20.7805H27.8405V22.1561C28.0573 22.0138 28.2942 21.9426 28.5511 21.9426ZM28.3659 24.3413C28.8596 24.3413 29.1065 24.0118 29.1065 23.353C29.1065 23.0219 29.0464 22.7852 28.9263 22.6428C28.8096 22.4971 28.6628 22.4243 28.486 22.4243C28.3592 22.4243 28.2458 22.4409 28.1457 22.474C28.049 22.5038 27.9473 22.5551 27.8405 22.6279V24.1972C28.004 24.2933 28.1791 24.3413 28.3659 24.3413Z" fill="black"/>
    <path d="M31.1952 24.828C30.8182 24.828 30.4913 24.7551 30.2144 24.6094L30.3645 24.1526C30.6281 24.2817 30.9016 24.3462 31.1851 24.3462C31.3486 24.3462 31.4787 24.3181 31.5754 24.2618C31.6755 24.2022 31.7256 24.1145 31.7256 23.9986C31.7256 23.9026 31.6789 23.8264 31.5855 23.7702C31.4954 23.7139 31.3519 23.651 31.1551 23.5814C30.9716 23.5152 30.8215 23.454 30.7048 23.3977C30.5914 23.3414 30.4929 23.2636 30.4096 23.1643C30.3295 23.0616 30.2895 22.9358 30.2895 22.7868C30.2895 22.512 30.3895 22.3035 30.5897 22.1611C30.7898 22.0154 31.06 21.9426 31.4003 21.9426C31.5571 21.9426 31.7105 21.9608 31.8607 21.9972C32.0141 22.0303 32.1492 22.08 32.266 22.1462L32.1159 22.6031C31.8823 22.4839 31.6488 22.4243 31.4153 22.4243C31.2685 22.4243 31.1518 22.4491 31.0651 22.4988C30.9817 22.5451 30.94 22.618 30.94 22.7173C30.94 22.8133 30.9833 22.8878 31.0701 22.9408C31.1568 22.9904 31.2986 23.05 31.4954 23.1196C31.6822 23.1825 31.8323 23.2437 31.9457 23.3033C32.0625 23.3596 32.1626 23.4424 32.246 23.5516C32.3327 23.6576 32.3761 23.7933 32.3761 23.9589C32.3761 24.2304 32.2726 24.4439 32.0658 24.5995C31.8623 24.7518 31.5721 24.828 31.1952 24.828Z" fill="black"/>
    <path d="M35.3961 22.0171V24.7535H34.9008L34.8207 24.5002C34.5005 24.7187 34.1869 24.828 33.88 24.828C33.5464 24.828 33.3162 24.7419 33.1895 24.5697C33.0627 24.3942 32.9993 24.1426 32.9993 23.8148V22.0171H33.6598V23.7404C33.6598 23.9589 33.6898 24.1128 33.7499 24.2022C33.8099 24.2916 33.92 24.3363 34.0801 24.3363C34.287 24.3363 34.5055 24.2502 34.7356 24.0781V22.0171H35.3961Z" fill="black"/>
    <path d="M36.2641 20.7805H36.9246V24.7535H36.2641V20.7805Z" fill="black"/>
    <path d="M39.4999 24.6094C39.4032 24.6724 39.2964 24.7204 39.1797 24.7535C39.0663 24.7866 38.9528 24.8031 38.8394 24.8031C38.5225 24.8031 38.2857 24.727 38.1289 24.5747C37.9721 24.4191 37.8937 24.1972 37.8937 23.9092V22.4889H37.4684V22.2107L37.9637 22.0419L38.1539 21.3417H38.5542V22.0171H39.3548V22.4889H38.5542V23.7702C38.5542 23.9655 38.5842 24.1062 38.6443 24.1923C38.7076 24.2751 38.8044 24.3164 38.9345 24.3164C39.0746 24.3164 39.228 24.2751 39.3948 24.1923L39.4999 24.6094Z" fill="black"/>
    <path d="M42.5175 24.7336C42.3707 24.7766 42.2189 24.7998 42.0622 24.8031C41.9154 24.8031 41.7919 24.7783 41.6919 24.7286C41.5951 24.679 41.5267 24.5945 41.4867 24.4754C41.3399 24.5846 41.1965 24.6674 41.0564 24.7237C40.9163 24.78 40.7678 24.8081 40.611 24.8081C40.3909 24.8081 40.2107 24.7452 40.0706 24.6194C39.9305 24.4903 39.8605 24.3313 39.8605 24.1426C39.8605 23.9539 39.9105 23.7999 40.0106 23.6808C40.1107 23.5616 40.2491 23.4656 40.4259 23.3927C40.606 23.3199 40.8596 23.2371 41.1865 23.1444L41.4467 23.0699V22.9607C41.4467 22.7918 41.41 22.6627 41.3366 22.5733C41.2665 22.4806 41.1581 22.4342 41.0114 22.4342C40.8579 22.4342 40.7061 22.4657 40.556 22.5286C40.4092 22.5915 40.2408 22.7024 40.0506 22.8613L39.8755 22.4293C40.2925 22.1048 40.7328 21.9426 41.1965 21.9426C41.5001 21.9426 41.7269 22.0237 41.877 22.1859C42.0305 22.3448 42.1072 22.6147 42.1072 22.9954V24.1178C42.1072 24.1906 42.1205 24.2436 42.1472 24.2767C42.1739 24.3065 42.2189 24.3214 42.2823 24.3214C42.3457 24.3214 42.4124 24.3082 42.4825 24.2817L42.5175 24.7336ZM40.521 24.0681C40.521 24.2403 40.6177 24.3264 40.8112 24.3264C40.9079 24.3264 41.0063 24.3049 41.1064 24.2618C41.2065 24.2188 41.3199 24.1542 41.4467 24.0681V23.4523L41.2665 23.5119C40.983 23.6046 40.7878 23.6907 40.6811 23.7702C40.5744 23.8496 40.521 23.9489 40.521 24.0681Z" fill="black"/>
    <path d="M44.5237 21.9426C44.8573 21.9426 45.0858 22.0303 45.2093 22.2058C45.336 22.3779 45.3994 22.6279 45.3994 22.9557V24.7535H44.7439V23.0302C44.7439 22.8117 44.7122 22.6577 44.6488 22.5683C44.5888 22.4789 44.4804 22.4342 44.3236 22.4342C44.1134 22.4342 43.8949 22.5187 43.6681 22.6875V24.7535H43.0076V22.0171H43.5029L43.583 22.2703C43.9033 22.0518 44.2168 21.9426 44.5237 21.9426Z" fill="black"/>
    <path d="M47.4233 24.828C47.1164 24.828 46.8578 24.7651 46.6477 24.6392C46.4408 24.5101 46.2857 24.338 46.1823 24.1228C46.0822 23.9042 46.0322 23.6592 46.0322 23.3878C46.0322 23.1229 46.0839 22.8812 46.1873 22.6627C46.2907 22.4442 46.4508 22.2703 46.6677 22.1412C46.8878 22.0088 47.1614 21.9426 47.4883 21.9426C47.6351 21.9426 47.7835 21.9641 47.9336 22.0071C48.0838 22.0502 48.2055 22.1065 48.2989 22.176L48.1388 22.6329C47.9353 22.4938 47.7185 22.4243 47.4883 22.4243C47.2381 22.4243 47.0446 22.5104 46.9079 22.6825C46.7711 22.8514 46.7027 23.0848 46.7027 23.3828C46.7027 23.6841 46.7644 23.9208 46.8878 24.093C47.0146 24.2618 47.1931 24.3462 47.4233 24.3462C47.57 24.3462 47.7018 24.3198 47.8186 24.2668C47.9386 24.2138 48.0621 24.1377 48.1888 24.0383L48.394 24.4505C48.2772 24.5598 48.1355 24.6508 47.9687 24.7237C47.8019 24.7932 47.6201 24.828 47.4233 24.828Z" fill="black"/>
    <path d="M51.3918 22.0171L50.2109 25.121C50.0975 25.4322 49.9457 25.6557 49.7556 25.7914C49.5688 25.9305 49.3403 26 49.0701 26C48.8766 26 48.7098 25.9735 48.5697 25.9205L48.6247 25.4289C48.7715 25.4752 48.8983 25.4984 49.005 25.4984C49.1718 25.4984 49.3119 25.4537 49.4253 25.3643C49.5421 25.2749 49.6472 25.1226 49.7406 24.9074L48.6147 22.0171H49.2902L50.0208 24.093L50.7263 22.0171H51.3918Z" fill="black"/>
</svg>
